<svg id="Layer_2" data-name="Layer 2" xmlns="http://www.w3.org/2000/svg" viewBox="0 0 60.085 33.2207"><defs><style>.cls-1{fill:#f4511e;}</style></defs><title>favicon1</title><path class="cls-1" d="M61.51,25.5469,48.4453,35.4482l2.1563,3.91h4.52l-.7441,1.8359q-1.8663,4.5924-7.75,4.5918H43.9336l-2.4453-5.2812L34.17,45.7861H23.5186L38.2012,34.6719l-2.4473-5-4.8945-4.125H43.2188l1.99,4.23,6.0137-4.23Z" transform="translate(-1.4248 -14.2949)"/><path d="M45.6777,14.3364,41.7383,24.5806H31.5352l1.4516-3.6084H26.9731L24.36,27.4009h8.5019l-2.4468,6.2212H21.9546l-2.8618,7.1748h3.6084l-.7881,1.8359q-2.0325,4.8838-7.7554,4.8828H1.4248L8.3511,40.623l8.4194-21.22L12.25,14.2949Z" transform="translate(-1.4248 -14.2949)"/></svg>